<svg width="60" height="60" viewBox="0 0 60 60" fill="none" xmlns="http://www.w3.org/2000/svg">
<g clip-path="url(#clip0_1_2)">
<rect width="60" height="60" rx="20" fill="#2563EB"/>
<path d="M41.1 23.75L29.5 30.9375L17.9 23.75V20.875L29.5 28.0625L41.1 20.875M41.1 18H17.9C16.2905 18 15 19.2794 15 20.875V38.125C15 38.8875 15.3055 39.6188 15.8494 40.1579C16.3932 40.6971 17.1309 41 17.9 41H41.1C41.8691 41 42.6068 40.6971 43.1506 40.1579C43.6945 39.6188 44 38.8875 44 38.125V20.875C44 19.2794 42.695 18 41.1 18Z" fill="white"/>
<path d="M32.5 40.8983V40.9C32.5 43.1789 33.394 45.3656 34.9874 46.9789C36.581 48.5924 38.7436 49.5 41 49.5C43.2564 49.5 45.419 48.5924 47.0126 46.9789C48.606 45.3656 49.5 43.1789 49.5 40.9V33.142V32.8538L49.2506 32.7093C46.8308 31.308 44.0247 30.5 41.0444 30.5C38.0284 30.5 35.2029 31.3171 32.7719 32.7568L32.5277 32.9014L32.5267 33.1853L32.5 40.8983ZM35.8266 40.4263L35.2725 40.2392L35.2513 37.62L35.3165 37.684C35.9836 38.3383 36.8758 38.7 37.8889 38.7C38.8583 38.7 39.7737 38.338 40.4557 37.6893L40.8336 37.3299L40.4586 36.9675C39.7756 36.3074 38.8586 35.945 37.8889 35.945C36.8755 35.945 35.9817 36.3071 35.3137 36.9729L35.2466 37.0397L35.227 34.6053C36.992 33.7698 38.9677 33.3 41.0444 33.3C43.07 33.3 44.9939 33.7452 46.7222 34.5463V37.0075L46.6808 36.9675C45.9978 36.3074 45.0808 35.945 44.1111 35.945C43.0977 35.945 42.2039 36.3071 41.5359 36.9729L41.1777 37.3298L41.5388 37.684C42.2059 38.3383 43.0981 38.7 44.1111 38.7C45.0805 38.7 45.9959 38.338 46.6779 37.6893L46.7222 37.6472V40.241L46.1734 40.4263L43.5846 41.3H42.9867L42.2446 40.5486L42.0978 40.4H41.8889H40.1111H39.9022L39.7554 40.5486L39.0133 41.3H38.4154L35.8266 40.4263ZM44.9732 43.875L46.7128 41.2329C46.5681 43.7865 44.7698 45.9198 42.3889 46.5276V45.4V44.9H41.8889H40.1111H39.6111V45.4V46.5268C37.2425 45.9177 35.4331 43.7844 35.2873 41.233L37.0268 43.875L37.175 44.1H37.4444H40.1111H40.32L40.4669 43.9514L41 43.4115L41.5331 43.9514L41.68 44.1H41.8889H44.5556H44.825L44.9732 43.875Z" fill="white" stroke="#2563EB"/>
<path d="M35 40.3333V38.6667H35.9412H36.5L37.8235 39H38.2941C38.6706 39 39.3922 38.7778 39.7059 38.6667L40.1765 38L41.5 37.5L42.0588 38.6667L44.5 39L43 41H39.7059H38.2941L35 40.3333Z" fill="#2563EB"/>
<path d="M35 34.3333V34.7778V36.5556H35.5294C35.9529 36.5556 36.4118 36.2593 36.5882 36.1111L38.1765 35.6667L40.2941 36.5556L41.3529 37L42.4118 36.1111L44 35.6667V33.4444L42.4118 33H40.2941L37.6471 33.4444L35 34.3333Z" fill="#2563EB"/>
</g>
<defs>
<clipPath id="clip0_1_2">
<rect width="60" height="60" fill="white"/>
</clipPath>
</defs>
</svg>
